# xmcd CD database file
#
# Track frame offsets:
#	150
#	1467
#	2779
#	13347
#	15038
#	17297
#	54800
#	58390
#	71532
#	90362
#	106962
#	109166
#	127088
#	161469
#	163360
#	173821
#	177671
#	192067
#	208886
#	214706
#	225956
#	255388
#	261198
#
# Disc length: 3522 seconds
#
# Revision: 0
# Processed by: cddbd v1.5.2PL0 Copyright (c) Steve Scherf et al.
# Submitted via: CDex 1.51
#
DISCID=290dc017
DTITLE=Steve Dalachinsky and Matthew Shipp - Phenomena of Interference
DYEAR=2005
DGENRE=Jazz
TTITLE0=Myth
TTITLE1=OK
TTITLE2=Retiring the World
TTITLE3=Embracement
TTITLE4=The Light
TTITLE5=Phenomena of Interference
TTITLE6=Blue #3
TTITLE7=Trust Fund Babies (Excerpt #1)
TTITLE8=Door Poems 1-6
TTITLE9=Naima
TTITLE10=Julie
TTITLE11=Blackjack
TTITLE12=Galileo (for Sonny Rollins)/Soaring thru Tin
TTITLE13=Matter
TTITLE14=Shadows (Excerpt from "Rum of the Bereft"
TTITLE15=We All Have To
TTITLE16=Subway System
TTITLE17=Three Orchids for Niblock
TTITLE18=Ruakh Hakodesh
TTITLE19=All The Things You Are (Encapsulated)
TTITLE20=Trust Fund Babies (Excerpt #2)
TTITLE21=Partita #3
TTITLE22=23
EXTD=YEAR: 2005
EXTT0=
EXTT1=
EXTT2=
EXTT3=
EXTT4=
EXTT5=
EXTT6=
EXTT7=
EXTT8=
EXTT9=
EXTT10=
EXTT11=
EXTT12=
EXTT13=
EXTT14=
EXTT15=
EXTT16=
EXTT17=
EXTT18=
EXTT19=
EXTT20=
EXTT21=
EXTT22=
PLAYORDER=
